<svg width="30" height="29" viewBox="0 0 30 29" fill="none" xmlns="http://www.w3.org/2000/svg">
<path d="M16.4683 0.93411L19.8133 7.64066C20.0545 8.12854 20.5251 8.46805 21.071 8.54801L28.5638 9.63947C29.0043 9.70126 29.4016 9.93301 29.6678 10.2835C29.934 10.6339 30.0471 11.0742 29.9821 11.5068C29.9302 11.8654 29.7612 12.1977 29.5004 12.4536L24.0681 17.7136C23.6703 18.0855 23.4893 18.629 23.5864 19.1601L24.9244 26.5636C25.0722 27.4493 24.4813 28.2914 23.5864 28.4704C23.2202 28.5279 22.8449 28.468 22.516 28.2995L15.826 24.8147C15.3306 24.5642 14.7426 24.5642 14.2472 24.8147L7.55719 28.2995C6.73313 28.7377 5.70362 28.4377 5.25582 27.6288C5.08615 27.305 5.02526 26.9367 5.08188 26.5768L6.41989 19.1733C6.51707 18.6422 6.33607 18.0986 5.9382 17.7268L0.505918 12.4667C0.187226 12.1578 0.0078125 11.7363 0.0078125 11.2964C0.0078125 10.8565 0.187226 10.4349 0.505918 10.126C0.762654 9.86479 1.1026 9.69774 1.46928 9.65262L8.96209 8.56116C9.50798 8.4812 9.97858 8.14169 10.2198 7.65381L13.4444 0.93411C13.7264 0.360923 14.322 0.00146229 14.9697 0.0136039H15.1704C15.734 0.0838751 16.2228 0.430542 16.4683 0.93411Z" fill="#E8D211"/>
</svg>
